<svg id="visual" viewBox="0 0 450 900" width="450" height="900" xmlns="http://www.w3.org/2000/svg" xmlns:xlink="http://www.w3.org/1999/xlink" version="1.1"><rect x="0" y="0" width="450" height="900" fill="#a150d7"></rect><path d="M301 0L296.5 25C292 50 283 100 289.2 150C295.3 200 316.7 250 321.5 300C326.3 350 314.7 400 309.3 450C304 500 305 550 311 600C317 650 328 700 329.8 750C331.7 800 324.3 850 320.7 875L317 900L0 900L0 875C0 850 0 800 0 750C0 700 0 650 0 600C0 550 0 500 0 450C0 400 0 350 0 300C0 250 0 200 0 150C0 100 0 50 0 25L0 0Z" fill="#9900ff"></path><path d="M271 0L268.7 25C266.3 50 261.7 100 266.3 150C271 200 285 250 285.2 300C285.3 350 271.7 400 267 450C262.3 500 266.7 550 265.8 600C265 650 259 700 259.8 750C260.7 800 268.3 850 272.2 875L276 900L0 900L0 875C0 850 0 800 0 750C0 700 0 650 0 600C0 550 0 500 0 450C0 400 0 350 0 300C0 250 0 200 0 150C0 100 0 50 0 25L0 0Z" fill="#8f00ee"></path><path d="M210 0L219.5 25C229 50 248 100 247.8 150C247.7 200 228.3 250 228.8 300C229.3 350 249.7 400 257.7 450C265.7 500 261.3 550 255.3 600C249.3 650 241.7 700 235.2 750C228.7 800 223.3 850 220.7 875L218 900L0 900L0 875C0 850 0 800 0 750C0 700 0 650 0 600C0 550 0 500 0 450C0 400 0 350 0 300C0 250 0 200 0 150C0 100 0 50 0 25L0 0Z" fill="#8500de"></path><path d="M195 0L199.7 25C204.3 50 213.7 100 211.5 150C209.3 200 195.7 250 188 300C180.3 350 178.7 400 179.7 450C180.7 500 184.3 550 185.5 600C186.7 650 185.3 700 191 750C196.7 800 209.3 850 215.7 875L222 900L0 900L0 875C0 850 0 800 0 750C0 700 0 650 0 600C0 550 0 500 0 450C0 400 0 350 0 300C0 250 0 200 0 150C0 100 0 50 0 25L0 0Z" fill="#7c00ce"></path><path d="M154 0L159 25C164 50 174 100 175.8 150C177.7 200 171.3 250 171.8 300C172.3 350 179.7 400 183.5 450C187.3 500 187.7 550 185.2 600C182.7 650 177.3 700 172.8 750C168.3 800 164.7 850 162.8 875L161 900L0 900L0 875C0 850 0 800 0 750C0 700 0 650 0 600C0 550 0 500 0 450C0 400 0 350 0 300C0 250 0 200 0 150C0 100 0 50 0 25L0 0Z" fill="#7200be"></path><path d="M146 0L143.8 25C141.7 50 137.3 100 131.7 150C126 200 119 250 121.2 300C123.3 350 134.7 400 133.3 450C132 500 118 550 111.5 600C105 650 106 700 107.7 750C109.3 800 111.7 850 112.8 875L114 900L0 900L0 875C0 850 0 800 0 750C0 700 0 650 0 600C0 550 0 500 0 450C0 400 0 350 0 300C0 250 0 200 0 150C0 100 0 50 0 25L0 0Z" fill="#6900ae"></path><path d="M107 0L106.3 25C105.7 50 104.3 100 101.2 150C98 200 93 250 90.8 300C88.7 350 89.3 400 90.5 450C91.7 500 93.3 550 93.7 600C94 650 93 700 89.8 750C86.7 800 81.3 850 78.7 875L76 900L0 900L0 875C0 850 0 800 0 750C0 700 0 650 0 600C0 550 0 500 0 450C0 400 0 350 0 300C0 250 0 200 0 150C0 100 0 50 0 25L0 0Z" fill="#5f009f"></path><path d="M64 0L60.2 25C56.3 50 48.7 100 44.3 150C40 200 39 250 42.7 300C46.3 350 54.7 400 55.2 450C55.7 500 48.3 550 47.2 600C46 650 51 700 55 750C59 800 62 850 63.5 875L65 900L0 900L0 875C0 850 0 800 0 750C0 700 0 650 0 600C0 550 0 500 0 450C0 400 0 350 0 300C0 250 0 200 0 150C0 100 0 50 0 25L0 0Z" fill="#560090"></path></svg>