<svg id="visual" viewBox="0 0 450 900" width="450" height="900" xmlns="http://www.w3.org/2000/svg" xmlns:xlink="http://www.w3.org/1999/xlink" version="1.1"><rect x="0" y="0" width="450" height="900" fill="#a150d7"></rect><path d="M273 0L275.5 25C278 50 283 100 283.3 150C283.7 200 279.3 250 284 300C288.7 350 302.3 400 308 450C313.7 500 311.3 550 317.5 600C323.7 650 338.3 700 336.2 750C334 800 315 850 305.5 875L296 900L0 900L0 875C0 850 0 800 0 750C0 700 0 650 0 600C0 550 0 500 0 450C0 400 0 350 0 300C0 250 0 200 0 150C0 100 0 50 0 25L0 0Z" fill="#9900ff"></path><path d="M293 0L286.7 25C280.3 50 267.7 100 258.8 150C250 200 245 250 242.3 300C239.7 350 239.3 400 240.7 450C242 500 245 550 252.8 600C260.7 650 273.3 700 276 750C278.7 800 271.3 850 267.7 875L264 900L0 900L0 875C0 850 0 800 0 750C0 700 0 650 0 600C0 550 0 500 0 450C0 400 0 350 0 300C0 250 0 200 0 150C0 100 0 50 0 25L0 0Z" fill="#8f00ee"></path><path d="M226 0L233.3 25C240.7 50 255.3 100 257 150C258.7 200 247.3 250 247.3 300C247.3 350 258.7 400 259.7 450C260.7 500 251.3 550 244.2 600C237 650 232 700 235 750C238 800 249 850 254.5 875L260 900L0 900L0 875C0 850 0 800 0 750C0 700 0 650 0 600C0 550 0 500 0 450C0 400 0 350 0 300C0 250 0 200 0 150C0 100 0 50 0 25L0 0Z" fill="#8500de"></path><path d="M230 0L226.7 25C223.3 50 216.7 100 209 150C201.3 200 192.7 250 186.7 300C180.7 350 177.3 400 179.7 450C182 500 190 550 190.8 600C191.7 650 185.3 700 189.7 750C194 800 209 850 216.5 875L224 900L0 900L0 875C0 850 0 800 0 750C0 700 0 650 0 600C0 550 0 500 0 450C0 400 0 350 0 300C0 250 0 200 0 150C0 100 0 50 0 25L0 0Z" fill="#7c00ce"></path><path d="M159 0L161.8 25C164.7 50 170.3 100 172.3 150C174.3 200 172.7 250 166.5 300C160.3 350 149.7 400 150.5 450C151.3 500 163.7 550 169.5 600C175.3 650 174.7 700 172.5 750C170.3 800 166.7 850 164.8 875L163 900L0 900L0 875C0 850 0 800 0 750C0 700 0 650 0 600C0 550 0 500 0 450C0 400 0 350 0 300C0 250 0 200 0 150C0 100 0 50 0 25L0 0Z" fill="#7200be"></path><path d="M118 0L116.8 25C115.7 50 113.3 100 116.3 150C119.3 200 127.7 250 126.7 300C125.7 350 115.3 400 115.3 450C115.3 500 125.7 550 131.7 600C137.7 650 139.3 700 135.8 750C132.3 800 123.7 850 119.3 875L115 900L0 900L0 875C0 850 0 800 0 750C0 700 0 650 0 600C0 550 0 500 0 450C0 400 0 350 0 300C0 250 0 200 0 150C0 100 0 50 0 25L0 0Z" fill="#6900ae"></path><path d="M105 0L103 25C101 50 97 100 93.3 150C89.7 200 86.3 250 85.7 300C85 350 87 400 89.7 450C92.3 500 95.7 550 96.2 600C96.7 650 94.3 700 92.7 750C91 800 90 850 89.5 875L89 900L0 900L0 875C0 850 0 800 0 750C0 700 0 650 0 600C0 550 0 500 0 450C0 400 0 350 0 300C0 250 0 200 0 150C0 100 0 50 0 25L0 0Z" fill="#5f009f"></path><path d="M65 0L61.7 25C58.3 50 51.7 100 50.7 150C49.7 200 54.3 250 53 300C51.7 350 44.3 400 41.7 450C39 500 41 550 41.7 600C42.3 650 41.7 700 42 750C42.3 800 43.7 850 44.3 875L45 900L0 900L0 875C0 850 0 800 0 750C0 700 0 650 0 600C0 550 0 500 0 450C0 400 0 350 0 300C0 250 0 200 0 150C0 100 0 50 0 25L0 0Z" fill="#560090"></path></svg>