<svg id="visual" viewBox="0 0 450 900" width="450" height="900" xmlns="http://www.w3.org/2000/svg" xmlns:xlink="http://www.w3.org/1999/xlink" version="1.1"><rect x="0" y="0" width="450" height="900" fill="#a150d7"></rect><path d="M313 0L316.3 25C319.7 50 326.3 100 327.5 150C328.7 200 324.3 250 314.8 300C305.3 350 290.7 400 292.5 450C294.3 500 312.7 550 315.7 600C318.7 650 306.3 700 297.8 750C289.3 800 284.7 850 282.3 875L280 900L0 900L0 875C0 850 0 800 0 750C0 700 0 650 0 600C0 550 0 500 0 450C0 400 0 350 0 300C0 250 0 200 0 150C0 100 0 50 0 25L0 0Z" fill="#9900ff"></path><path d="M313 0L310.8 25C308.7 50 304.3 100 300.2 150C296 200 292 250 287.7 300C283.3 350 278.7 400 273.5 450C268.3 500 262.7 550 260.2 600C257.7 650 258.3 700 265.2 750C272 800 285 850 291.5 875L298 900L0 900L0 875C0 850 0 800 0 750C0 700 0 650 0 600C0 550 0 500 0 450C0 400 0 350 0 300C0 250 0 200 0 150C0 100 0 50 0 25L0 0Z" fill="#9000f0"></path><path d="M235 0L239 25C243 50 251 100 249 150C247 200 235 250 238.5 300C242 350 261 400 267 450C273 500 266 550 264.3 600C262.7 650 266.3 700 261.8 750C257.3 800 244.7 850 238.3 875L232 900L0 900L0 875C0 850 0 800 0 750C0 700 0 650 0 600C0 550 0 500 0 450C0 400 0 350 0 300C0 250 0 200 0 150C0 100 0 50 0 25L0 0Z" fill="#8800e2"></path><path d="M244 0L240.8 25C237.7 50 231.3 100 231.3 150C231.3 200 237.7 250 240.5 300C243.3 350 242.7 400 242.2 450C241.7 500 241.3 550 235.8 600C230.3 650 219.7 700 212.8 750C206 800 203 850 201.5 875L200 900L0 900L0 875C0 850 0 800 0 750C0 700 0 650 0 600C0 550 0 500 0 450C0 400 0 350 0 300C0 250 0 200 0 150C0 100 0 50 0 25L0 0Z" fill="#7f00d4"></path><path d="M184 0L183.5 25C183 50 182 100 179.5 150C177 200 173 250 170.3 300C167.7 350 166.3 400 172 450C177.7 500 190.3 550 196 600C201.7 650 200.3 700 193.3 750C186.3 800 173.7 850 167.3 875L161 900L0 900L0 875C0 850 0 800 0 750C0 700 0 650 0 600C0 550 0 500 0 450C0 400 0 350 0 300C0 250 0 200 0 150C0 100 0 50 0 25L0 0Z" fill="#7700c6"></path><path d="M139 0L139.3 25C139.7 50 140.3 100 142.8 150C145.3 200 149.7 250 146.8 300C144 350 134 400 133.8 450C133.7 500 143.3 550 148.7 600C154 650 155 700 152.5 750C150 800 144 850 141 875L138 900L0 900L0 875C0 850 0 800 0 750C0 700 0 650 0 600C0 550 0 500 0 450C0 400 0 350 0 300C0 250 0 200 0 150C0 100 0 50 0 25L0 0Z" fill="#6f00b8"></path><path d="M124 0L119.8 25C115.7 50 107.3 100 106.2 150C105 200 111 250 116 300C121 350 125 400 124.5 450C124 500 119 550 115 600C111 650 108 700 106.2 750C104.3 800 103.7 850 103.3 875L103 900L0 900L0 875C0 850 0 800 0 750C0 700 0 650 0 600C0 550 0 500 0 450C0 400 0 350 0 300C0 250 0 200 0 150C0 100 0 50 0 25L0 0Z" fill="#6600ab"></path><path d="M84 0L85.2 25C86.3 50 88.7 100 85.5 150C82.3 200 73.7 250 71 300C68.3 350 71.7 400 73 450C74.3 500 73.7 550 76.3 600C79 650 85 700 88.2 750C91.3 800 91.7 850 91.8 875L92 900L0 900L0 875C0 850 0 800 0 750C0 700 0 650 0 600C0 550 0 500 0 450C0 400 0 350 0 300C0 250 0 200 0 150C0 100 0 50 0 25L0 0Z" fill="#5e009d"></path><path d="M55 0L52.3 25C49.7 50 44.3 100 45 150C45.7 200 52.3 250 53.7 300C55 350 51 400 50.7 450C50.3 500 53.7 550 53.3 600C53 650 49 700 47.7 750C46.3 800 47.7 850 48.3 875L49 900L0 900L0 875C0 850 0 800 0 750C0 700 0 650 0 600C0 550 0 500 0 450C0 400 0 350 0 300C0 250 0 200 0 150C0 100 0 50 0 25L0 0Z" fill="#560090"></path></svg>