<svg id="visual" viewBox="0 0 450 900" width="450" height="900" xmlns="http://www.w3.org/2000/svg" xmlns:xlink="http://www.w3.org/1999/xlink" version="1.1"><rect x="0" y="0" width="450" height="900" fill="#a150d7"></rect><path d="M112 900L101 900L101 861L58 861L58 822L61 822L61 783L49 783L49 743L98 743L98 704L60 704L60 665L109 665L109 626L104 626L104 587L99 587L99 548L124 548L124 509L93 509L93 470L130 470L130 430L110 430L110 391L120 391L120 352L93 352L93 313L111 313L111 274L134 274L134 235L144 235L144 196L100 196L100 157L75 157L75 117L137 117L137 78L81 78L81 39L102 39L102 0L450 0L450 39L450 39L450 78L450 78L450 117L450 117L450 157L450 157L450 196L450 196L450 235L450 235L450 274L450 274L450 313L450 313L450 352L450 352L450 391L450 391L450 430L450 430L450 470L450 470L450 509L450 509L450 548L450 548L450 587L450 587L450 626L450 626L450 665L450 665L450 704L450 704L450 743L450 743L450 783L450 783L450 822L450 822L450 861L450 861L450 900L450 900Z" fill="#9900ff"></path><path d="M94 900L165 900L165 861L115 861L115 822L127 822L127 783L95 783L95 743L151 743L151 704L111 704L111 665L89 665L89 626L118 626L118 587L162 587L162 548L171 548L171 509L135 509L135 470L175 470L175 430L119 430L119 391L118 391L118 352L89 352L89 313L113 313L113 274L163 274L163 235L122 235L122 196L171 196L171 157L147 157L147 117L133 117L133 78L103 78L103 39L111 39L111 0L450 0L450 39L450 39L450 78L450 78L450 117L450 117L450 157L450 157L450 196L450 196L450 235L450 235L450 274L450 274L450 313L450 313L450 352L450 352L450 391L450 391L450 430L450 430L450 470L450 470L450 509L450 509L450 548L450 548L450 587L450 587L450 626L450 626L450 665L450 665L450 704L450 704L450 743L450 743L450 783L450 783L450 822L450 822L450 861L450 861L450 900L450 900Z" fill="#9100f2"></path><path d="M206 900L138 900L138 861L139 861L139 822L196 822L196 783L160 783L160 743L153 743L153 704L136 704L136 665L160 665L160 626L146 626L146 587L184 587L184 548L171 548L171 509L190 509L190 470L167 470L167 430L203 430L203 391L186 391L186 352L128 352L128 313L155 313L155 274L187 274L187 235L137 235L137 196L168 196L168 157L152 157L152 117L207 117L207 78L198 78L198 39L149 39L149 0L450 0L450 39L450 39L450 78L450 78L450 117L450 117L450 157L450 157L450 196L450 196L450 235L450 235L450 274L450 274L450 313L450 313L450 352L450 352L450 391L450 391L450 430L450 430L450 470L450 470L450 509L450 509L450 548L450 548L450 587L450 587L450 626L450 626L450 665L450 665L450 704L450 704L450 743L450 743L450 783L450 783L450 822L450 822L450 861L450 861L450 900L450 900Z" fill="#8a00e5"></path><path d="M230 900L238 900L238 861L217 861L217 822L217 822L217 783L192 783L192 743L200 743L200 704L207 704L207 665L178 665L178 626L182 626L182 587L215 587L215 548L168 548L168 509L222 509L222 470L212 470L212 430L166 430L166 391L178 391L178 352L173 352L173 313L191 313L191 274L208 274L208 235L188 235L188 196L218 196L218 157L212 157L212 117L184 117L184 78L238 78L238 39L202 39L202 0L450 0L450 39L450 39L450 78L450 78L450 117L450 117L450 157L450 157L450 196L450 196L450 235L450 235L450 274L450 274L450 313L450 313L450 352L450 352L450 391L450 391L450 430L450 430L450 470L450 470L450 509L450 509L450 548L450 548L450 587L450 587L450 626L450 626L450 665L450 665L450 704L450 704L450 743L450 743L450 783L450 783L450 822L450 822L450 861L450 861L450 900L450 900Z" fill="#8200d9"></path><path d="M222 900L253 900L253 861L204 861L204 822L239 822L239 783L241 783L241 743L218 743L218 704L216 704L216 665L258 665L258 626L212 626L212 587L233 587L233 548L222 548L222 509L213 509L213 470L206 470L206 430L236 430L236 391L269 391L269 352L246 352L246 313L218 313L218 274L202 274L202 235L208 235L208 196L243 196L243 157L202 157L202 117L223 117L223 78L248 78L248 39L242 39L242 0L450 0L450 39L450 39L450 78L450 78L450 117L450 117L450 157L450 157L450 196L450 196L450 235L450 235L450 274L450 274L450 313L450 313L450 352L450 352L450 391L450 391L450 430L450 430L450 470L450 470L450 509L450 509L450 548L450 548L450 587L450 587L450 626L450 626L450 665L450 665L450 704L450 704L450 743L450 743L450 783L450 783L450 822L450 822L450 861L450 861L450 900L450 900Z" fill="#7b00cc"></path><path d="M291 900L275 900L275 861L274 861L274 822L282 822L282 783L262 783L262 743L271 743L271 704L267 704L267 665L254 665L254 626L274 626L274 587L260 587L260 548L270 548L270 509L295 509L295 470L261 470L261 430L261 430L261 391L293 391L293 352L295 352L295 313L277 313L277 274L286 274L286 235L284 235L284 196L265 196L265 157L252 157L252 117L299 117L299 78L252 78L252 39L295 39L295 0L450 0L450 39L450 39L450 78L450 78L450 117L450 117L450 157L450 157L450 196L450 196L450 235L450 235L450 274L450 274L450 313L450 313L450 352L450 352L450 391L450 391L450 430L450 430L450 470L450 470L450 509L450 509L450 548L450 548L450 587L450 587L450 626L450 626L450 665L450 665L450 704L450 704L450 743L450 743L450 783L450 783L450 822L450 822L450 861L450 861L450 900L450 900Z" fill="#7300c0"></path><path d="M322 900L330 900L330 861L322 861L322 822L309 822L309 783L321 783L321 743L308 743L308 704L301 704L301 665L296 665L296 626L286 626L286 587L296 587L296 548L321 548L321 509L312 509L312 470L277 470L277 430L281 430L281 391L277 391L277 352L316 352L316 313L298 313L298 274L288 274L288 235L280 235L280 196L294 196L294 157L279 157L279 117L320 117L320 78L331 78L331 39L330 39L330 0L450 0L450 39L450 39L450 78L450 78L450 117L450 117L450 157L450 157L450 196L450 196L450 235L450 235L450 274L450 274L450 313L450 313L450 352L450 352L450 391L450 391L450 430L450 430L450 470L450 470L450 509L450 509L450 548L450 548L450 587L450 587L450 626L450 626L450 665L450 665L450 704L450 704L450 743L450 743L450 783L450 783L450 822L450 822L450 861L450 861L450 900L450 900Z" fill="#6c00b4"></path><path d="M335 900L321 900L321 861L348 861L348 822L351 822L351 783L340 783L340 743L364 743L364 704L353 704L353 665L343 665L343 626L327 626L327 587L325 587L325 548L359 548L359 509L319 509L319 470L320 470L320 430L341 430L341 391L317 391L317 352L353 352L353 313L349 313L349 274L330 274L330 235L329 235L329 196L354 196L354 157L358 157L358 117L354 117L354 78L342 78L342 39L362 39L362 0L450 0L450 39L450 39L450 78L450 78L450 117L450 117L450 157L450 157L450 196L450 196L450 235L450 235L450 274L450 274L450 313L450 313L450 352L450 352L450 391L450 391L450 430L450 430L450 470L450 470L450 509L450 509L450 548L450 548L450 587L450 587L450 626L450 626L450 665L450 665L450 704L450 704L450 743L450 743L450 783L450 783L450 822L450 822L450 861L450 861L450 900L450 900Z" fill="#6400a8"></path><path d="M360 900L389 900L389 861L371 861L371 822L366 822L366 783L369 783L369 743L382 743L382 704L390 704L390 665L395 665L395 626L381 626L381 587L378 587L378 548L374 548L374 509L364 509L364 470L383 470L383 430L372 430L372 391L359 391L359 352L362 352L362 313L375 313L375 274L377 274L377 235L395 235L395 196L372 196L372 157L391 157L391 117L375 117L375 78L377 78L377 39L392 39L392 0L450 0L450 39L450 39L450 78L450 78L450 117L450 117L450 157L450 157L450 196L450 196L450 235L450 235L450 274L450 274L450 313L450 313L450 352L450 352L450 391L450 391L450 430L450 430L450 470L450 470L450 509L450 509L450 548L450 548L450 587L450 587L450 626L450 626L450 665L450 665L450 704L450 704L450 743L450 743L450 783L450 783L450 822L450 822L450 861L450 861L450 900L450 900Z" fill="#5d009c"></path><path d="M420 900L390 900L390 861L421 861L421 822L430 822L430 783L391 783L391 743L401 743L401 704L410 704L410 665L391 665L391 626L393 626L393 587L391 587L391 548L392 548L392 509L408 509L408 470L395 470L395 430L430 430L430 391L421 391L421 352L399 352L399 313L414 313L414 274L416 274L416 235L405 235L405 196L411 196L411 157L419 157L419 117L391 117L391 78L418 78L418 39L402 39L402 0L450 0L450 39L450 39L450 78L450 78L450 117L450 117L450 157L450 157L450 196L450 196L450 235L450 235L450 274L450 274L450 313L450 313L450 352L450 352L450 391L450 391L450 430L450 430L450 470L450 470L450 509L450 509L450 548L450 548L450 587L450 587L450 626L450 626L450 665L450 665L450 704L450 704L450 743L450 743L450 783L450 783L450 822L450 822L450 861L450 861L450 900L450 900Z" fill="#560090"></path></svg>