<svg id="visual" viewBox="0 0 450 900" width="450" height="900" xmlns="http://www.w3.org/2000/svg" xmlns:xlink="http://www.w3.org/1999/xlink" version="1.1"><rect x="0" y="0" width="450" height="900" fill="#a150d7"></rect><path d="M137 900L118 900L118 861L102 861L102 822L115 822L115 783L95 783L95 743L70 743L70 704L75 704L75 665L124 665L124 626L125 626L125 587L68 587L68 548L52 548L52 509L125 509L125 470L114 470L114 430L115 430L115 391L64 391L64 352L72 352L72 313L53 313L53 274L97 274L97 235L52 235L52 196L51 196L51 157L72 157L72 117L56 117L56 78L97 78L97 39L83 39L83 0L450 0L450 39L450 39L450 78L450 78L450 117L450 117L450 157L450 157L450 196L450 196L450 235L450 235L450 274L450 274L450 313L450 313L450 352L450 352L450 391L450 391L450 430L450 430L450 470L450 470L450 509L450 509L450 548L450 548L450 587L450 587L450 626L450 626L450 665L450 665L450 704L450 704L450 743L450 743L450 783L450 783L450 822L450 822L450 861L450 861L450 900L450 900Z" fill="#9900ff"></path><path d="M113 900L167 900L167 861L146 861L146 822L167 822L167 783L93 783L93 743L175 743L175 704L102 704L102 665L173 665L173 626L156 626L156 587L98 587L98 548L95 548L95 509L153 509L153 470L116 470L116 430L145 430L145 391L134 391L134 352L168 352L168 313L164 313L164 274L153 274L153 235L156 235L156 196L99 196L99 157L125 157L125 117L129 117L129 78L132 78L132 39L120 39L120 0L450 0L450 39L450 39L450 78L450 78L450 117L450 117L450 157L450 157L450 196L450 196L450 235L450 235L450 274L450 274L450 313L450 313L450 352L450 352L450 391L450 391L450 430L450 430L450 470L450 470L450 509L450 509L450 548L450 548L450 587L450 587L450 626L450 626L450 665L450 665L450 704L450 704L450 743L450 743L450 783L450 783L450 822L450 822L450 861L450 861L450 900L450 900Z" fill="#9100f2"></path><path d="M163 900L196 900L196 861L141 861L141 822L133 822L133 783L176 783L176 743L147 743L147 704L129 704L129 665L200 665L200 626L166 626L166 587L173 587L173 548L138 548L138 509L139 509L139 470L197 470L197 430L158 430L158 391L146 391L146 352L197 352L197 313L125 313L125 274L126 274L126 235L128 235L128 196L206 196L206 157L195 157L195 117L184 117L184 78L132 78L132 39L209 39L209 0L450 0L450 39L450 39L450 78L450 78L450 117L450 117L450 157L450 157L450 196L450 196L450 235L450 235L450 274L450 274L450 313L450 313L450 352L450 352L450 391L450 391L450 430L450 430L450 470L450 470L450 509L450 509L450 548L450 548L450 587L450 587L450 626L450 626L450 665L450 665L450 704L450 704L450 743L450 743L450 783L450 783L450 822L450 822L450 861L450 861L450 900L450 900Z" fill="#8a00e5"></path><path d="M235 900L224 900L224 861L216 861L216 822L191 822L191 783L203 783L203 743L164 743L164 704L188 704L188 665L190 665L190 626L206 626L206 587L186 587L186 548L178 548L178 509L207 509L207 470L208 470L208 430L179 430L179 391L192 391L192 352L234 352L234 313L169 313L169 274L220 274L220 235L217 235L217 196L206 196L206 157L184 157L184 117L164 117L164 78L227 78L227 39L222 39L222 0L450 0L450 39L450 39L450 78L450 78L450 117L450 117L450 157L450 157L450 196L450 196L450 235L450 235L450 274L450 274L450 313L450 313L450 352L450 352L450 391L450 391L450 430L450 430L450 470L450 470L450 509L450 509L450 548L450 548L450 587L450 587L450 626L450 626L450 665L450 665L450 704L450 704L450 743L450 743L450 783L450 783L450 822L450 822L450 861L450 861L450 900L450 900Z" fill="#8200d9"></path><path d="M256 900L221 900L221 861L206 861L206 822L202 822L202 783L229 783L229 743L271 743L271 704L267 704L267 665L211 665L211 626L260 626L260 587L246 587L246 548L218 548L218 509L232 509L232 470L217 470L217 430L202 430L202 391L235 391L235 352L230 352L230 313L223 313L223 274L212 274L212 235L218 235L218 196L230 196L230 157L225 157L225 117L216 117L216 78L258 78L258 39L261 39L261 0L450 0L450 39L450 39L450 78L450 78L450 117L450 117L450 157L450 157L450 196L450 196L450 235L450 235L450 274L450 274L450 313L450 313L450 352L450 352L450 391L450 391L450 430L450 430L450 470L450 470L450 509L450 509L450 548L450 548L450 587L450 587L450 626L450 626L450 665L450 665L450 704L450 704L450 743L450 743L450 783L450 783L450 822L450 822L450 861L450 861L450 900L450 900Z" fill="#7b00cc"></path><path d="M259 900L265 900L265 861L286 861L286 822L248 822L248 783L286 783L286 743L263 743L263 704L280 704L280 665L292 665L292 626L241 626L241 587L269 587L269 548L285 548L285 509L249 509L249 470L299 470L299 430L262 430L262 391L271 391L271 352L284 352L284 313L276 313L276 274L259 274L259 235L239 235L239 196L245 196L245 157L267 157L267 117L246 117L246 78L256 78L256 39L253 39L253 0L450 0L450 39L450 39L450 78L450 78L450 117L450 117L450 157L450 157L450 196L450 196L450 235L450 235L450 274L450 274L450 313L450 313L450 352L450 352L450 391L450 391L450 430L450 430L450 470L450 470L450 509L450 509L450 548L450 548L450 587L450 587L450 626L450 626L450 665L450 665L450 704L450 704L450 743L450 743L450 783L450 783L450 822L450 822L450 861L450 861L450 900L450 900Z" fill="#7300c0"></path><path d="M316 900L285 900L285 861L325 861L325 822L305 822L305 783L322 783L322 743L297 743L297 704L282 704L282 665L281 665L281 626L323 626L323 587L296 587L296 548L327 548L327 509L297 509L297 470L316 470L316 430L329 430L329 391L283 391L283 352L312 352L312 313L320 313L320 274L329 274L329 235L297 235L297 196L292 196L292 157L277 157L277 117L318 117L318 78L326 78L326 39L328 39L328 0L450 0L450 39L450 39L450 78L450 78L450 117L450 117L450 157L450 157L450 196L450 196L450 235L450 235L450 274L450 274L450 313L450 313L450 352L450 352L450 391L450 391L450 430L450 430L450 470L450 470L450 509L450 509L450 548L450 548L450 587L450 587L450 626L450 626L450 665L450 665L450 704L450 704L450 743L450 743L450 783L450 783L450 822L450 822L450 861L450 861L450 900L450 900Z" fill="#6c00b4"></path><path d="M332 900L323 900L323 861L353 861L353 822L323 822L323 783L328 783L328 743L323 743L323 704L352 704L352 665L355 665L355 626L333 626L333 587L355 587L355 548L330 548L330 509L322 509L322 470L363 470L363 430L345 430L345 391L367 391L367 352L353 352L353 313L341 313L341 274L363 274L363 235L358 235L358 196L344 196L344 157L339 157L339 117L322 117L322 78L344 78L344 39L350 39L350 0L450 0L450 39L450 39L450 78L450 78L450 117L450 117L450 157L450 157L450 196L450 196L450 235L450 235L450 274L450 274L450 313L450 313L450 352L450 352L450 391L450 391L450 430L450 430L450 470L450 470L450 509L450 509L450 548L450 548L450 587L450 587L450 626L450 626L450 665L450 665L450 704L450 704L450 743L450 743L450 783L450 783L450 822L450 822L450 861L450 861L450 900L450 900Z" fill="#6400a8"></path><path d="M384 900L389 900L389 861L369 861L369 822L371 822L371 783L369 783L369 743L375 743L375 704L397 704L397 665L353 665L353 626L385 626L385 587L369 587L369 548L369 548L369 509L361 509L361 470L367 470L367 430L398 430L398 391L363 391L363 352L374 352L374 313L387 313L387 274L362 274L362 235L361 235L361 196L361 196L361 157L368 157L368 117L380 117L380 78L394 78L394 39L392 39L392 0L450 0L450 39L450 39L450 78L450 78L450 117L450 117L450 157L450 157L450 196L450 196L450 235L450 235L450 274L450 274L450 313L450 313L450 352L450 352L450 391L450 391L450 430L450 430L450 470L450 470L450 509L450 509L450 548L450 548L450 587L450 587L450 626L450 626L450 665L450 665L450 704L450 704L450 743L450 743L450 783L450 783L450 822L450 822L450 861L450 861L450 900L450 900Z" fill="#5d009c"></path><path d="M416 900L403 900L403 861L412 861L412 822L417 822L417 783L405 783L405 743L422 743L422 704L430 704L430 665L404 665L404 626L408 626L408 587L397 587L397 548L400 548L400 509L414 509L414 470L409 470L409 430L410 430L410 391L415 391L415 352L393 352L393 313L424 313L424 274L424 274L424 235L409 235L409 196L399 196L399 157L410 157L410 117L394 117L394 78L395 78L395 39L425 39L425 0L450 0L450 39L450 39L450 78L450 78L450 117L450 117L450 157L450 157L450 196L450 196L450 235L450 235L450 274L450 274L450 313L450 313L450 352L450 352L450 391L450 391L450 430L450 430L450 470L450 470L450 509L450 509L450 548L450 548L450 587L450 587L450 626L450 626L450 665L450 665L450 704L450 704L450 743L450 743L450 783L450 783L450 822L450 822L450 861L450 861L450 900L450 900Z" fill="#560090"></path></svg>