<svg id="visual" viewBox="0 0 450 900" width="450" height="900" xmlns="http://www.w3.org/2000/svg" xmlns:xlink="http://www.w3.org/1999/xlink" version="1.1"><rect x="0" y="0" width="450" height="900" fill="#a150d7"></rect><path d="M147 900L145 900L145 853L82 853L82 805L89 805L89 758L139 758L139 711L93 711L93 663L51 663L51 616L138 616L138 568L44 568L44 521L68 521L68 474L93 474L93 426L44 426L44 379L119 379L119 332L118 332L118 284L43 284L43 237L120 237L120 189L67 189L67 142L97 142L97 95L74 95L74 47L142 47L142 0L450 0L450 47L450 47L450 95L450 95L450 142L450 142L450 189L450 189L450 237L450 237L450 284L450 284L450 332L450 332L450 379L450 379L450 426L450 426L450 474L450 474L450 521L450 521L450 568L450 568L450 616L450 616L450 663L450 663L450 711L450 711L450 758L450 758L450 805L450 805L450 853L450 853L450 900L450 900Z" fill="#9900ff"></path><path d="M120 900L168 900L168 853L102 853L102 805L166 805L166 758L105 758L105 711L133 711L133 663L165 663L165 616L131 616L131 568L131 568L131 521L98 521L98 474L137 474L137 426L113 426L113 379L146 379L146 332L171 332L171 284L96 284L96 237L82 237L82 189L103 189L103 142L104 142L104 95L108 95L108 47L103 47L103 0L450 0L450 47L450 47L450 95L450 95L450 142L450 142L450 189L450 189L450 237L450 237L450 284L450 284L450 332L450 332L450 379L450 379L450 426L450 426L450 474L450 474L450 521L450 521L450 568L450 568L450 616L450 616L450 663L450 663L450 711L450 711L450 758L450 758L450 805L450 805L450 853L450 853L450 900L450 900Z" fill="#9200f3"></path><path d="M207 900L142 900L142 853L166 853L166 805L169 805L169 758L201 758L201 711L204 711L204 663L186 663L186 616L192 616L192 568L182 568L182 521L202 521L202 474L156 474L156 426L150 426L150 379L160 379L160 332L165 332L165 284L172 284L172 237L169 237L169 189L170 189L170 142L169 142L169 95L112 95L112 47L201 47L201 0L450 0L450 47L450 47L450 95L450 95L450 142L450 142L450 189L450 189L450 237L450 237L450 284L450 284L450 332L450 332L450 379L450 379L450 426L450 426L450 474L450 474L450 521L450 521L450 568L450 568L450 616L450 616L450 663L450 663L450 711L450 711L450 758L450 758L450 805L450 805L450 853L450 853L450 900L450 900Z" fill="#8b00e8"></path><path d="M162 900L197 900L197 853L171 853L171 805L148 805L148 758L200 758L200 711L172 711L172 663L210 663L210 616L160 616L160 568L201 568L201 521L216 521L216 474L232 474L232 426L233 426L233 379L181 379L181 332L200 332L200 284L163 284L163 237L176 237L176 189L229 189L229 142L158 142L158 95L153 95L153 47L179 47L179 0L450 0L450 47L450 47L450 95L450 95L450 142L450 142L450 189L450 189L450 237L450 237L450 284L450 284L450 332L450 332L450 379L450 379L450 426L450 426L450 474L450 474L450 521L450 521L450 568L450 568L450 616L450 616L450 663L450 663L450 711L450 711L450 758L450 758L450 805L450 805L450 853L450 853L450 900L450 900Z" fill="#8400dc"></path><path d="M206 900L186 900L186 853L181 853L181 805L195 805L195 758L195 758L195 711L257 711L257 663L211 663L211 616L259 616L259 568L208 568L208 521L236 521L236 474L230 474L230 426L244 426L244 379L210 379L210 332L228 332L228 284L210 284L210 237L235 237L235 189L235 189L235 142L228 142L228 95L218 95L218 47L212 47L212 0L450 0L450 47L450 47L450 95L450 95L450 142L450 142L450 189L450 189L450 237L450 237L450 284L450 284L450 332L450 332L450 379L450 379L450 426L450 426L450 474L450 474L450 521L450 521L450 568L450 568L450 616L450 616L450 663L450 663L450 711L450 711L450 758L450 758L450 805L450 805L450 853L450 853L450 900L450 900Z" fill="#7e00d1"></path><path d="M291 900L217 900L217 853L277 853L277 805L222 805L222 758L237 758L237 711L241 711L241 663L278 663L278 616L246 616L246 568L263 568L263 521L223 521L223 474L221 474L221 426L227 426L227 379L290 379L290 332L220 332L220 284L282 284L282 237L265 237L265 189L278 189L278 142L232 142L232 95L251 95L251 47L255 47L255 0L450 0L450 47L450 47L450 95L450 95L450 142L450 142L450 189L450 189L450 237L450 237L450 284L450 284L450 332L450 332L450 379L450 379L450 426L450 426L450 474L450 474L450 521L450 521L450 568L450 568L450 616L450 616L450 663L450 663L450 711L450 711L450 758L450 758L450 805L450 805L450 853L450 853L450 900L450 900Z" fill="#7700c6"></path><path d="M281 900L305 900L305 853L280 853L280 805L308 805L308 758L280 758L280 711L284 711L284 663L259 663L259 616L321 616L321 568L301 568L301 521L278 521L278 474L251 474L251 426L301 426L301 379L278 379L278 332L299 332L299 284L322 284L322 237L250 237L250 189L271 189L271 142L299 142L299 95L322 95L322 47L311 47L311 0L450 0L450 47L450 47L450 95L450 95L450 142L450 142L450 189L450 189L450 237L450 237L450 284L450 284L450 332L450 332L450 379L450 379L450 426L450 426L450 474L450 474L450 521L450 521L450 568L450 568L450 616L450 616L450 663L450 663L450 711L450 711L450 758L450 758L450 805L450 805L450 853L450 853L450 900L450 900Z" fill="#7000bb"></path><path d="M329 900L306 900L306 853L310 853L310 805L310 805L310 758L308 758L308 711L334 711L334 663L341 663L341 616L294 616L294 568L319 568L319 521L345 521L345 474L296 474L296 426L324 426L324 379L314 379L314 332L349 332L349 284L344 284L344 237L322 237L322 189L336 189L336 142L334 142L334 95L340 95L340 47L330 47L330 0L450 0L450 47L450 47L450 95L450 95L450 142L450 142L450 189L450 189L450 237L450 237L450 284L450 284L450 332L450 332L450 379L450 379L450 426L450 426L450 474L450 474L450 521L450 521L450 568L450 568L450 616L450 616L450 663L450 663L450 711L450 711L450 758L450 758L450 805L450 805L450 853L450 853L450 900L450 900Z" fill="#6a00b0"></path><path d="M359 900L357 900L357 853L357 853L357 805L374 805L374 758L322 758L322 711L378 711L378 663L322 663L322 616L344 616L344 568L370 568L370 521L357 521L357 474L373 474L373 426L335 426L335 379L323 379L323 332L353 332L353 284L324 284L324 237L348 237L348 189L364 189L364 142L343 142L343 95L373 95L373 47L378 47L378 0L450 0L450 47L450 47L450 95L450 95L450 142L450 142L450 189L450 189L450 237L450 237L450 284L450 284L450 332L450 332L450 379L450 379L450 426L450 426L450 474L450 474L450 521L450 521L450 568L450 568L450 616L450 616L450 663L450 663L450 711L450 711L450 758L450 758L450 805L450 805L450 853L450 853L450 900L450 900Z" fill="#6300a5"></path><path d="M386 900L393 900L393 853L391 853L391 805L363 805L363 758L386 758L386 711L382 711L382 663L401 663L401 616L401 616L401 568L367 568L367 521L384 521L384 474L385 474L385 426L365 426L365 379L396 379L396 332L406 332L406 284L366 284L366 237L393 237L393 189L385 189L385 142L377 142L377 95L393 95L393 47L394 47L394 0L450 0L450 47L450 47L450 95L450 95L450 142L450 142L450 189L450 189L450 237L450 237L450 284L450 284L450 332L450 332L450 379L450 379L450 426L450 426L450 474L450 474L450 521L450 521L450 568L450 568L450 616L450 616L450 663L450 663L450 711L450 711L450 758L450 758L450 805L450 805L450 853L450 853L450 900L450 900Z" fill="#5c009b"></path><path d="M419 900L413 900L413 853L419 853L419 805L430 805L430 758L427 758L427 711L409 711L409 663L433 663L433 616L431 616L431 568L406 568L406 521L399 521L399 474L404 474L404 426L410 426L410 379L427 379L427 332L433 332L433 284L430 284L430 237L400 237L400 189L431 189L431 142L401 142L401 95L402 95L402 47L391 47L391 0L450 0L450 47L450 47L450 95L450 95L450 142L450 142L450 189L450 189L450 237L450 237L450 284L450 284L450 332L450 332L450 379L450 379L450 426L450 426L450 474L450 474L450 521L450 521L450 568L450 568L450 616L450 616L450 663L450 663L450 711L450 711L450 758L450 758L450 805L450 805L450 853L450 853L450 900L450 900Z" fill="#560090"></path></svg>